<mxfile host="app.diagrams.net" modified="2021-08-25T13:35:01.721Z" agent="5.0 (Windows NT 10.0; Win64; x64) AppleWebKit/537.36 (KHTML, like Gecko) Chrome/92.0.4515.131 Safari/537.36" etag="w3-SXRv4QCLZHvIfOmdQ" version="14.9.7" type="github" pages="2">
  <diagram id="QSKhLHXfNhP3l16r8w8o" name="Page-1">
    <mxGraphModel dx="1422" dy="705" grid="0" gridSize="10" guides="1" tooltips="1" connect="1" arrows="1" fold="1" page="1" pageScale="1" pageWidth="827" pageHeight="1169" math="0" shadow="0">
      <root>
        <mxCell id="0" />
        <mxCell id="1" parent="0" />
        <mxCell id="r8J5G2t5eGGIcPuT9xYb-4" style="edgeStyle=orthogonalEdgeStyle;rounded=0;orthogonalLoop=1;jettySize=auto;html=1;exitX=1;exitY=0.5;exitDx=0;exitDy=0;" edge="1" parent="1" source="r8J5G2t5eGGIcPuT9xYb-1" target="r8J5G2t5eGGIcPuT9xYb-3">
          <mxGeometry relative="1" as="geometry" />
        </mxCell>
        <mxCell id="r8J5G2t5eGGIcPuT9xYb-8" style="edgeStyle=orthogonalEdgeStyle;rounded=0;orthogonalLoop=1;jettySize=auto;html=1;exitX=0.5;exitY=1;exitDx=0;exitDy=0;entryX=0;entryY=0.25;entryDx=0;entryDy=0;" edge="1" parent="1" source="r8J5G2t5eGGIcPuT9xYb-1" target="r8J5G2t5eGGIcPuT9xYb-3">
          <mxGeometry relative="1" as="geometry">
            <Array as="points">
              <mxPoint x="165" y="216" />
              <mxPoint x="271" y="216" />
              <mxPoint x="271" y="258" />
            </Array>
          </mxGeometry>
        </mxCell>
        <mxCell id="r8J5G2t5eGGIcPuT9xYb-14" style="edgeStyle=orthogonalEdgeStyle;rounded=0;orthogonalLoop=1;jettySize=auto;html=1;exitX=0.5;exitY=0;exitDx=0;exitDy=0;entryX=0;entryY=0.5;entryDx=0;entryDy=0;" edge="1" parent="1" source="r8J5G2t5eGGIcPuT9xYb-1" target="r8J5G2t5eGGIcPuT9xYb-12">
          <mxGeometry relative="1" as="geometry" />
        </mxCell>
        <mxCell id="r8J5G2t5eGGIcPuT9xYb-1" value="主播端" style="rounded=1;whiteSpace=wrap;html=1;fontStyle=1" vertex="1" parent="1">
          <mxGeometry x="105" y="119" width="120" height="60" as="geometry" />
        </mxCell>
        <mxCell id="r8J5G2t5eGGIcPuT9xYb-5" style="edgeStyle=orthogonalEdgeStyle;rounded=0;orthogonalLoop=1;jettySize=auto;html=1;exitX=1;exitY=0.5;exitDx=0;exitDy=0;entryX=0;entryY=0.5;entryDx=0;entryDy=0;" edge="1" parent="1" source="r8J5G2t5eGGIcPuT9xYb-2" target="r8J5G2t5eGGIcPuT9xYb-3">
          <mxGeometry relative="1" as="geometry" />
        </mxCell>
        <mxCell id="r8J5G2t5eGGIcPuT9xYb-2" value="用户端" style="rounded=1;whiteSpace=wrap;html=1;" vertex="1" parent="1">
          <mxGeometry x="105" y="243" width="120" height="60" as="geometry" />
        </mxCell>
        <mxCell id="r8J5G2t5eGGIcPuT9xYb-19" style="edgeStyle=orthogonalEdgeStyle;rounded=0;orthogonalLoop=1;jettySize=auto;html=1;exitX=1;exitY=0.5;exitDx=0;exitDy=0;entryX=0;entryY=0.5;entryDx=0;entryDy=0;" edge="1" parent="1" source="r8J5G2t5eGGIcPuT9xYb-3" target="r8J5G2t5eGGIcPuT9xYb-13">
          <mxGeometry relative="1" as="geometry" />
        </mxCell>
        <mxCell id="r8J5G2t5eGGIcPuT9xYb-3" value="模板" style="rounded=1;whiteSpace=wrap;html=1;" vertex="1" parent="1">
          <mxGeometry x="377" y="243" width="120" height="60" as="geometry" />
        </mxCell>
        <mxCell id="r8J5G2t5eGGIcPuT9xYb-9" value="业务模板布局" style="text;html=1;strokeColor=none;fillColor=none;align=center;verticalAlign=middle;whiteSpace=wrap;rounded=0;" vertex="1" parent="1">
          <mxGeometry x="264" y="283" width="75" height="20" as="geometry" />
        </mxCell>
        <mxCell id="r8J5G2t5eGGIcPuT9xYb-11" value="直播流" style="text;html=1;strokeColor=none;fillColor=none;align=center;verticalAlign=middle;whiteSpace=wrap;rounded=0;" vertex="1" parent="1">
          <mxGeometry x="294" y="119" width="40" height="20" as="geometry" />
        </mxCell>
        <mxCell id="r8J5G2t5eGGIcPuT9xYb-17" style="edgeStyle=orthogonalEdgeStyle;rounded=0;orthogonalLoop=1;jettySize=auto;html=1;exitX=1;exitY=0.5;exitDx=0;exitDy=0;entryX=0;entryY=0.5;entryDx=0;entryDy=0;" edge="1" parent="1" source="r8J5G2t5eGGIcPuT9xYb-12" target="r8J5G2t5eGGIcPuT9xYb-13">
          <mxGeometry relative="1" as="geometry" />
        </mxCell>
        <mxCell id="r8J5G2t5eGGIcPuT9xYb-12" value="人脸&lt;br&gt;躯干" style="rounded=1;whiteSpace=wrap;html=1;" vertex="1" parent="1">
          <mxGeometry x="377" y="35" width="120" height="60" as="geometry" />
        </mxCell>
        <mxCell id="r8J5G2t5eGGIcPuT9xYb-24" style="edgeStyle=orthogonalEdgeStyle;rounded=0;orthogonalLoop=1;jettySize=auto;html=1;exitX=0.25;exitY=1;exitDx=0;exitDy=0;" edge="1" parent="1" source="r8J5G2t5eGGIcPuT9xYb-13" target="r8J5G2t5eGGIcPuT9xYb-21">
          <mxGeometry relative="1" as="geometry" />
        </mxCell>
        <mxCell id="r8J5G2t5eGGIcPuT9xYb-25" style="edgeStyle=orthogonalEdgeStyle;rounded=0;orthogonalLoop=1;jettySize=auto;html=1;exitX=0.75;exitY=1;exitDx=0;exitDy=0;" edge="1" parent="1" source="r8J5G2t5eGGIcPuT9xYb-13" target="r8J5G2t5eGGIcPuT9xYb-22">
          <mxGeometry relative="1" as="geometry" />
        </mxCell>
        <mxCell id="r8J5G2t5eGGIcPuT9xYb-13" value="服务器" style="rounded=1;whiteSpace=wrap;html=1;" vertex="1" parent="1">
          <mxGeometry x="597" y="162" width="120" height="60" as="geometry" />
        </mxCell>
        <mxCell id="r8J5G2t5eGGIcPuT9xYb-15" value="分割网络" style="text;html=1;strokeColor=none;fillColor=none;align=center;verticalAlign=middle;whiteSpace=wrap;rounded=0;" vertex="1" parent="1">
          <mxGeometry x="246" y="38" width="80" height="20" as="geometry" />
        </mxCell>
        <mxCell id="r8J5G2t5eGGIcPuT9xYb-20" value="判断遮挡" style="text;html=1;strokeColor=none;fillColor=none;align=center;verticalAlign=middle;whiteSpace=wrap;rounded=0;" vertex="1" parent="1">
          <mxGeometry x="617" y="133" width="64" height="20" as="geometry" />
        </mxCell>
        <mxCell id="r8J5G2t5eGGIcPuT9xYb-21" value="主播端" style="rounded=1;whiteSpace=wrap;html=1;" vertex="1" parent="1">
          <mxGeometry x="460" y="455" width="120" height="60" as="geometry" />
        </mxCell>
        <mxCell id="r8J5G2t5eGGIcPuT9xYb-22" value="用户端" style="rounded=1;whiteSpace=wrap;html=1;" vertex="1" parent="1">
          <mxGeometry x="687" y="455" width="120" height="60" as="geometry" />
        </mxCell>
        <mxCell id="r8J5G2t5eGGIcPuT9xYb-26" value="调整布局结构" style="text;html=1;strokeColor=none;fillColor=none;align=center;verticalAlign=middle;whiteSpace=wrap;rounded=0;" vertex="1" parent="1">
          <mxGeometry x="619" y="351" width="76" height="20" as="geometry" />
        </mxCell>
      </root>
    </mxGraphModel>
  </diagram>
  <diagram id="VwYe-9JylCJLlLdAEWjo" name="Page-2">
    <mxGraphModel dx="1422" dy="705" grid="0" gridSize="10" guides="1" tooltips="1" connect="1" arrows="1" fold="1" page="1" pageScale="1" pageWidth="827" pageHeight="1169" math="0" shadow="0">
      <root>
        <mxCell id="33vpnX88xUWo6i92nPUP-0" />
        <mxCell id="33vpnX88xUWo6i92nPUP-1" parent="33vpnX88xUWo6i92nPUP-0" />
      </root>
    </mxGraphModel>
  </diagram>
</mxfile>
